<svg id="svg" version="1.1" xmlns="http://www.w3.org/2000/svg" xmlns:xlink="http://www.w3.org/1999/xlink" width="400" height="400" viewBox="0, 0, 400,400"><g id="svgg"><path id="path0" d="M184.312 1.570 C 181.055 2.372,176.485 3.876,174.156 4.912 C 168.732 7.327,48.427 76.690,43.740 80.105 C 32.517 88.282,23.199 102.385,19.544 116.727 C 17.089 126.356,17.089 273.644,19.544 283.273 C 23.291 297.977,32.267 311.331,44.531 320.449 C 48.456 323.367,169.093 392.834,174.130 395.076 C 188.952 401.675,211.017 401.677,225.870 395.081 C 231.281 392.678,351.590 323.310,356.260 319.900 C 366.748 312.243,375.513 299.592,379.809 285.910 L 381.641 280.078 381.641 200.000 L 381.641 119.922 379.809 114.090 C 375.513 100.409,366.754 87.766,356.260 80.098 C 351.599 76.691,231.290 7.325,225.870 4.919 C 214.669 -0.054,196.774 -1.496,184.312 1.570 M209.766 33.332 C 216.789 35.473,335.628 104.434,340.440 109.161 C 350.767 119.306,350.728 118.959,350.740 200.000 C 350.753 280.662,350.747 280.714,340.440 290.839 C 335.816 295.381,217.351 364.220,209.766 366.773 C 196.431 371.261,196.494 371.288,125.028 330.181 C 51.792 288.056,52.148 288.336,49.949 271.283 C 49.063 264.414,49.063 135.586,49.949 128.717 C 52.141 111.715,51.998 111.828,123.465 70.703 C 199.459 26.972,195.099 28.861,209.766 33.332 M109.303 136.975 C 102.131 140.762,99.054 150.554,102.681 158.043 C 103.728 160.204,110.324 166.240,127.009 180.308 C 139.599 190.924,149.900 199.785,149.900 200.000 C 149.900 200.215,139.599 209.076,127.009 219.692 C 102.020 240.761,101.263 241.630,101.222 249.301 C 101.161 260.510,113.627 268.475,123.710 263.671 C 128.171 261.545,186.897 211.269,188.919 207.845 C 191.517 203.446,191.517 196.554,188.919 192.155 C 186.897 188.731,128.171 138.455,123.710 136.329 C 119.936 134.531,113.373 134.825,109.303 136.975 M243.248 153.126 C 239.912 154.457,237.758 160.096,239.801 162.148 C 241.930 164.287,225.936 182.022,221.875 182.024 C 216.960 182.027,208.296 173.805,209.593 170.369 C 211.895 164.271,204.202 159.190,199.614 163.779 C 197.851 165.542,198.101 171.025,200.038 173.088 C 201.480 174.622,203.834 182.195,206.341 193.359 C 207.988 200.694,203.921 200.000,245.244 200.000 C 273.604 200.000,282.007 199.780,282.582 199.023 C 282.990 198.486,284.639 192.773,286.248 186.328 C 288.058 179.076,289.747 173.995,290.680 172.997 C 292.527 171.020,292.726 165.493,291.011 163.779 C 286.399 159.167,278.732 164.274,281.049 170.414 C 283.199 176.111,270.253 184.182,264.615 180.660 C 261.595 178.774,249.930 163.093,250.844 162.148 C 254.218 158.662,247.970 151.241,243.248 153.126 M209.549 205.122 C 208.089 206.145,207.813 207.071,207.813 210.938 C 207.813 218.365,205.699 217.969,245.313 217.969 C 284.926 217.969,282.813 218.365,282.813 210.938 C 282.813 203.510,284.926 203.906,245.313 203.906 C 215.780 203.906,211.056 204.067,209.549 205.122 M208.930 233.546 C 195.750 236.700,192.527 253.282,203.392 262.035 L 206.394 264.453 246.658 264.669 C 286.598 264.883,286.949 264.872,290.424 263.189 C 302.979 257.112,300.865 237.139,287.305 233.725 C 283.243 232.702,213.127 232.542,208.930 233.546 " stroke="none" fill="#000000" fill-rule="evenodd"></path></g></svg>